<svg xmlns="http://www.w3.org/2000/svg" height="1200" width="1600" version="1.1" xmlns:xlink="http://www.w3.org/1999/xlink" xmlns:svgjs="http://svgjs.com/svgjs"><rect fill="#effaff" width="1600" height="1200"></rect><g><path d="M1330.6 460.62C1325.98 452.2 1321.07 443.87 1315.79 435.87 1219.18 286.51 1044.91 211.66 858.67 199.84 817.91 197.2 777.15 199.41 736.39 199.41 526.27 199.41 395.41 319.6 371.45 342.73 317.67 395.04 270.49 454.16 252.94 521.44 243.23 559.21 242.09 595.87 250.49 633.8 264.64 698.11 319.37 760.2 365.88 808.51 428.81 874.01 505.8 932.7 596.38 963.83 818 1039.87 1150.02 1003.72 1304.56 827.31 1318.72 811.15 1331.36 793.54 1341.74 775 1396.18 677.78 1384.19 558.61 1330.6 460.62Z" fill="#deeff7" opacity="1" stroke-width="2" stroke="none"></path></g><g><path d="M959.06 433.43H602.56C581.56 433.43 564.69 416.4 564.69 395.55 564.69 374.55 581.72 357.68 602.56 357.68H714.93C740.39 357.68 760.92 337.15 760.92 311.68" stroke="#333333" stroke-width="2" stroke-linecap="round" stroke-linejoin="round" opacity="1" fill="none"></path><path d="M377.53 912.32H276.94C229.83 912.32 191.48 874.12 191.48 826.85 191.48 779.75 229.67 741.39 276.94 741.39H1176.46C1261.61 741.39 1330.52 672.32 1330.52 587.33 1330.52 502.19 1261.45 433.27 1176.46 433.27H986.6" stroke="#333333" stroke-width="2" stroke-linecap="round" stroke-linejoin="round" opacity="1" fill="none"></path></g><g><path d="M1401.78 670.23H964.22V959.28H1401.78V670.23Z" fill="#abedd8" stroke="#333333" stroke-width="2" stroke-linecap="round" stroke-linejoin="round" opacity="1"></path><path d="M998.43 699.69H1052.9" stroke="#333333" stroke-width="2" stroke-linecap="round" stroke-linejoin="round" opacity="1" fill="none"></path><path d="M1045.99 718.1H1052.9" stroke="#333333" stroke-width="2" stroke-linecap="round" stroke-linejoin="round" opacity="1" fill="none"></path><path d="M998.43 718.1H1039.09" stroke="#333333" stroke-width="2" stroke-linecap="round" stroke-linejoin="round" opacity="1" fill="none"></path><path d="M998.43 736.51H1025.9" stroke="#333333" stroke-width="2" stroke-linecap="round" stroke-linejoin="round" opacity="1" fill="none"></path></g><g><path d="M996.32 435.32H1257.44C1283.81 435.32 1305.05 414.98 1305.05 389.96 1305.05 364.83 1283.7 344.6 1257.44 344.6H1198.29C1222.27 344.6 1241.68 326.1 1241.68 303.26 1241.68 280.41 1222.27 261.92 1198.29 261.92H1025.66C1001.68 261.92 982.27 280.41 982.27 303.26 982.27 326.1 1001.68 344.6 1025.66 344.6H875.41C849.03 344.6 827.8 364.94 827.8 389.96 827.8 415.09 849.15 435.32 875.41 435.32H923.13" fill="#46cdcf" opacity="1" stroke-width="2" stroke="none"></path><path d="M996.32 435.32H1257.44C1283.81 435.32 1305.05 414.98 1305.05 389.96 1305.05 364.83 1283.7 344.6 1257.44 344.6H1198.29C1222.27 344.6 1241.68 326.1 1241.68 303.26 1241.68 280.41 1222.27 261.92 1198.29 261.92H1025.66C1001.68 261.92 982.27 280.41 982.27 303.26 982.27 326.1 1001.68 344.6 1025.66 344.6H875.41C849.03 344.6 827.8 364.94 827.8 389.96 827.8 415.09 849.15 435.32 875.41 435.32H923.13" stroke="#333333" stroke-width="2" stroke-linecap="round" stroke-linejoin="round" opacity="1" fill="none"></path><path d="M938.66 435.32H983.07" stroke="#333333" stroke-width="2" stroke-linecap="round" stroke-linejoin="round" opacity="1" fill="none"></path><path d="M1168.49 344.6H1198.18" stroke="#333333" stroke-width="2" stroke-linecap="round" stroke-linejoin="round" opacity="1" fill="none"></path></g><g><path d="M219.32 620.2H185.79L185.79 361.24 198.6 340.19 641.78 340.19 649.29 361.24V620.2H244.05" fill="#abedd8" opacity="1" stroke-width="2" stroke="none"></path><path d="M219.32 620.2H185.79L185.79 361.24 198.6 340.19 641.78 340.19 649.29 361.24V620.2H244.05" stroke="#333333" stroke-width="2" stroke-linecap="round" stroke-linejoin="round" opacity="1" fill="none"></path><path d="M185.79 306.48L649.29 306.48V361.24L185.79 361.24V306.48Z" fill="#78c7e0" stroke="#333333" stroke-width="2" stroke-linecap="round" stroke-linejoin="round" opacity="1"></path><path d="M185.79 306.48H244.05V361.24H185.79V306.48Z" fill="#78c7e0" stroke="#333333" stroke-width="2" stroke-linecap="round" stroke-linejoin="round" opacity="1"></path><path d="M244.05 306.48H302.31V361.24H244.05V306.48Z" fill="#78c7e0" stroke="#333333" stroke-width="2" stroke-linecap="round" stroke-linejoin="round" opacity="1"></path><path d="M227.09 322.42L202.75 345.3" stroke="#333333" stroke-width="2" stroke-linecap="round" stroke-linejoin="round" opacity="1" fill="none"></path><path d="M227.09 345.3L202.75 322.42" stroke="#333333" stroke-width="2" stroke-linecap="round" stroke-linejoin="round" opacity="1" fill="none"></path><path d="M288.2 333.86H258.16" stroke="#333333" stroke-width="2" stroke-linecap="round" stroke-linejoin="round" opacity="1" fill="none"></path><path d="M625.98 383.15H578.73" stroke="#333333" stroke-width="2" stroke-linecap="round" stroke-linejoin="round" opacity="1" fill="none"></path><path d="M607.08 397.63H578.73" stroke="#333333" stroke-width="2" stroke-linecap="round" stroke-linejoin="round" opacity="1" fill="none"></path><path d="M625.98 397.63H616.01" stroke="#333333" stroke-width="2" stroke-linecap="round" stroke-linejoin="round" opacity="1" fill="none"></path><path d="M625.98 412.11H578.73" stroke="#333333" stroke-width="2" stroke-linecap="round" stroke-linejoin="round" opacity="1" fill="none"></path><path d="M625.98 426.59H578.73" stroke="#333333" stroke-width="2" stroke-linecap="round" stroke-linejoin="round" opacity="1" fill="none"></path></g><g><path d="M642.54 806.37H673.4C698.67 806.37 719.06 788.05 719.06 765.34 719.06 742.63 698.67 724.31 673.4 724.31H508.33C508.33 699.25 485.67 678.89 457.78 678.89H339.78C300.56 678.89 268.83 707.39 268.83 742.63 268.83 777.87 300.56 806.37 339.78 806.37H431.81 508.33 617.44" fill="#46cdcf" opacity="1" stroke-width="2" stroke="none"></path><path d="M642.54 806.37H673.4C698.67 806.37 719.06 788.05 719.06 765.34 719.06 742.63 698.67 724.31 673.4 724.31H508.33C508.33 699.25 485.67 678.89 457.78 678.89H339.78C300.56 678.89 268.83 707.39 268.83 742.63 268.83 777.87 300.56 806.37 339.78 806.37H431.81 508.33 617.44" stroke="#333333" stroke-width="2" stroke-linecap="round" stroke-linejoin="round" opacity="1" fill="none"></path><path d="M508.5 724.31H445.58" stroke="#333333" stroke-width="2" stroke-linecap="round" stroke-linejoin="round" opacity="1" fill="none"></path><path d="M427.97 724.31H405.49" stroke="#333333" stroke-width="2" stroke-linecap="round" stroke-linejoin="round" opacity="1" fill="none"></path></g><g><path d="M408.23 981.28C453 981.28 489.29 944.99 489.29 900.23 489.29 855.47 453 819.18 408.23 819.18 363.47 819.18 327.18 855.47 327.18 900.23 327.18 944.99 363.47 981.28 408.23 981.28Z" fill="#78c7e0" stroke="#333333" stroke-width="2" stroke-linecap="round" stroke-linejoin="round" opacity="1"></path><path d="M391.53 933.88H438.2V879.84H406.52L418.18 852.09H400.01L388.34 879.84H365.99V933.88H381.71" fill="#3d84a8" opacity="1" stroke-width="2" stroke="none"></path><path d="M391.53 933.88H438.2V879.84H406.52L418.18 852.09H400.01L388.34 879.84H365.99V933.88H381.71" stroke="#333333" stroke-width="2" stroke-linecap="round" stroke-linejoin="round" opacity="1" fill="none"></path><path d="M406.52 879.84C413.02 879.84 418.3 885.12 418.3 891.63" stroke="#333333" stroke-width="2" stroke-linecap="round" stroke-linejoin="round" opacity="1" fill="none"></path><path d="M406.52 903.42C408.97 903.42 411.18 902.69 413.15 901.46 416.34 899.37 418.3 895.81 418.3 891.63" stroke="#333333" stroke-width="2" stroke-linecap="round" stroke-linejoin="round" opacity="1" fill="none"></path><path d="M450.6 879.84H425.92V893.35H450.6V879.84Z" fill="#3d84a8" stroke="#333333" stroke-width="2" stroke-linecap="round" stroke-linejoin="round" opacity="1"></path><path d="M450.6 893.35H425.92V906.86H450.6V893.35Z" fill="#3d84a8" stroke="#333333" stroke-width="2" stroke-linecap="round" stroke-linejoin="round" opacity="1"></path><path d="M450.6 906.86H425.92V920.37H450.6V906.86Z" fill="#3d84a8" stroke="#333333" stroke-width="2" stroke-linecap="round" stroke-linejoin="round" opacity="1"></path><path d="M450.6 920.37H425.92V933.88H450.6V920.37Z" fill="#3d84a8" stroke="#333333" stroke-width="2" stroke-linecap="round" stroke-linejoin="round" opacity="1"></path></g><g><path d="M342.91 471.23L329.94 458.81 389.3 449.97 415.81 396.68 442.32 449.97 501.14 458.81 458.34 500.5 468.28 559.32 415.81 531.71 362.8 559.32 373.01 500.5 367.77 495.26 363.9 491.94 349.82 477.86" fill="#46cdcf" opacity="1" stroke-width="2" stroke="none"></path><path d="M342.91 471.23L329.94 458.81 389.3 449.97 415.81 396.68 442.32 449.97 501.14 458.81 458.34 500.5 468.28 559.32 415.81 531.71 362.8 559.32 373.01 500.5 367.77 495.26 363.9 491.94 349.82 477.86" stroke="#333333" stroke-width="2" stroke-linecap="round" stroke-linejoin="round" opacity="1" fill="none"></path></g><g><path d="M1114.61 899.3H1251.39V819.17C1251.39 796.74 1233.2 778.63 1210.85 778.63H1155.15C1132.71 778.63 1114.61 796.82 1114.61 819.17L1114.61 899.3Z" fill="#ffffff" stroke="#333333" stroke-width="2" stroke-linecap="round" stroke-linejoin="round" opacity="1"></path><path d="M1147.44 751.95C1147.44 751.95 1156.28 738 1168.84 738 1204.27 738 1209.55 751.95 1209.55 751.95 1209.55 751.95 1218.04 782.88 1200.63 801.24 1195.08 804.44 1188.67 806.18 1181.83 806.18 1160.78 806.18 1143.89 789.03 1143.89 768.24 1143.8 762.43 1145.1 756.89 1147.44 751.95Z" fill="#ffffff" stroke="#333333" stroke-width="2" opacity="1"></path><path d="M1200.02 766.07C1200.02 760.87 1200.02 757.23 1200.02 751.86H1178.97C1173.43 751.86 1169.01 747.36 1169.01 741.9 1169.01 747.45 1164.51 751.86 1159.05 751.86H1147.61C1153.68 739.04 1166.76 730.21 1181.92 730.21 1197.08 730.21 1210.07 739.04 1216.22 751.86 1218.73 757.15 1220.03 762.95 1219.86 769.36H1219.95V777.07C1230.77 777.07 1239.61 785.91 1239.61 796.74 1239.61 807.56 1230.77 816.4 1219.95 816.4 1210.68 816.4 1202.88 809.9 1200.8 801.24 1200.45 799.77 1200.28 798.29 1200.28 796.74L1200.02 766.07Z" fill="#48466d" stroke="#333333" stroke-width="2" stroke-linecap="round" stroke-linejoin="round" opacity="1"></path><path d="M1162.17 770.49V777.76" stroke="#333333" stroke-width="2" stroke-linecap="round" opacity="1" fill="none"></path><path d="M1172.3 777.76C1172.3 780.54 1170.05 782.88 1167.19 782.88 1164.33 782.88 1162.08 780.62 1162.08 777.76" stroke="#333333" stroke-width="2" stroke-linecap="round" opacity="1" fill="none"></path><path d="M1134.88 854.43V845.33" stroke="#333333" stroke-width="2" stroke-linecap="round" stroke-linejoin="round" opacity="1" fill="none"></path><path d="M1134.88 899.3V860.66" stroke="#333333" stroke-width="2" stroke-linecap="round" stroke-linejoin="round" opacity="1" fill="none"></path><path d="M1208.25 832.68C1208.25 839.61 1213.88 845.25 1220.81 845.25V899.21" stroke="#333333" stroke-width="2" stroke-linecap="round" stroke-linejoin="round" opacity="1" fill="none"></path></g><g><path d="M998.26 760.69L903.08 689.94 884.71 807.17H998.26V760.69Z" fill="#78c7e0" stroke="#333333" stroke-width="2" stroke-linecap="round" stroke-linejoin="round" opacity="1"></path><path d="M601.74 760.69L697.1 689.94 715.48 807.17H601.74V760.69Z" fill="#78c7e0" stroke="#333333" stroke-width="2" stroke-linecap="round" stroke-linejoin="round" opacity="1"></path><path d="M866.7 887.84L850.71 851.46H800 749.47L710.52 939.1 763.99 914.11 800 950.13 836.01 914.11 889.48 939.1 872.58 900.88" fill="#3d84a8" opacity="1" stroke-width="2" stroke="none"></path><path d="M866.7 887.84L850.71 851.46H800 749.47L710.52 939.1 763.99 914.11 800 950.13 836.01 914.11 889.48 939.1 872.58 900.88" stroke="#333333" stroke-width="2" stroke-linecap="round" stroke-linejoin="round" opacity="1" fill="none"></path><path d="M900.14 858.99H700.04L728.34 807.17 800 790.82 871.84 807.17 900.14 858.99Z" fill="#78c7e0" stroke="#333333" stroke-width="2" stroke-linecap="round" stroke-linejoin="round" opacity="1"></path><path d="M807.53 249.87H792.65L767.84 374.82 800 397.42 832.34 374.82 807.53 249.87Z" fill="#48466d" stroke="#333333" stroke-width="2" stroke-linecap="round" stroke-linejoin="round" opacity="1"></path><path d="M832.34 374.82H767.84L697.1 461.36 800 503.07 903.08 461.36 832.34 374.82Z" fill="#48466d" stroke="#333333" stroke-width="2" stroke-linecap="round" stroke-linejoin="round" opacity="1"></path><path d="M903.08 461.36H697.1V807.17H903.08V461.36Z" fill="#48466d" stroke="#333333" stroke-width="2" stroke-linecap="round" stroke-linejoin="round" opacity="1"></path><path d="M817.14 635.57C846.19 626.13 862.11 594.93 852.66 565.88 843.22 536.83 812.02 520.92 782.97 530.36 753.92 539.8 738.02 571 747.45 600.06 756.89 629.11 788.09 645 817.14 635.57Z" fill="#3d84a8" opacity="1" stroke-width="2" stroke="none"></path><path d="M800 638.31C830.54 638.31 855.31 613.54 855.31 583 855.31 552.46 830.54 527.7 800 527.7 769.46 527.7 744.69 552.46 744.69 583 744.69 613.54 769.46 638.31 800 638.31Z" stroke="#333333" stroke-width="2" stroke-linecap="round" stroke-linejoin="round" opacity="1" fill="none"></path></g><g><path d="M1107.63 576.59C1118.69 598.15 1139.41 614.11 1164.19 618.59L1178.61 659.75 1193.03 618.59C1230.13 611.87 1258.27 579.39 1258.27 540.19 1258.27 496.22 1222.57 460.52 1178.61 460.52 1134.65 460.52 1098.95 496.22 1098.95 540.19 1098.95 548.87 1100.35 557.27 1102.87 565.11" fill="#78c7e0" opacity="1" stroke-width="2" stroke="none"></path><path d="M1107.63 576.59C1118.69 598.15 1139.41 614.11 1164.19 618.59L1178.61 659.75 1193.03 618.59C1230.13 611.87 1258.27 579.39 1258.27 540.19 1258.27 496.22 1222.57 460.52 1178.61 460.52 1134.65 460.52 1098.95 496.22 1098.95 540.19 1098.95 548.87 1100.35 557.27 1102.87 565.11" stroke="#333333" stroke-width="2" stroke-linecap="round" stroke-linejoin="round" opacity="1" fill="none"></path></g></svg>